<svg width="200" height="36" viewBox="0 0 200 36" fill="none" xmlns="http://www.w3.org/2000/svg">
<path d="M57.096 14.84C57.096 15.912 56.848 16.888 56.352 17.768C55.856 18.632 55.12 19.32 54.144 19.832C53.184 20.344 52.016 20.6 50.64 20.6H48.528V26H43.2V9.008H50.64C52.72 9.008 54.312 9.536 55.416 10.592C56.536 11.648 57.096 13.064 57.096 14.84ZM50.04 16.4C51.144 16.4 51.696 15.88 51.696 14.84C51.696 13.8 51.144 13.28 50.04 13.28H48.528V16.4H50.04ZM67.3299 26L64.1379 19.904H64.1139V26H58.7859V9.008H66.7059C68.0819 9.008 69.2579 9.256 70.2339 9.752C71.2099 10.232 71.9379 10.896 72.4179 11.744C72.9139 12.576 73.1619 13.52 73.1619 14.576C73.1619 15.712 72.8419 16.72 72.2019 17.6C71.5779 18.48 70.6739 19.112 69.4899 19.496L73.1859 26H67.3299ZM64.1139 16.352H66.2259C66.7379 16.352 67.1219 16.24 67.3779 16.016C67.6339 15.776 67.7619 15.408 67.7619 14.912C67.7619 14.464 67.6259 14.112 67.3539 13.856C67.0979 13.6 66.7219 13.472 66.2259 13.472H64.1139V16.352ZM85.7601 23.432H80.0961L79.2561 26H73.6641L79.8801 9.008H86.0241L92.2161 26H86.6001L85.7601 23.432ZM84.4641 19.424L82.9281 14.696L81.3921 19.424H84.4641ZM103.699 26L98.7546 18.632V26H93.4266V9.008H98.7546V16.16L103.627 9.008H109.651L103.795 17.144L110.035 26H103.699ZM116.872 13.256V15.344H122.152V19.352H116.872V21.752H122.872V26H111.544V9.008H122.872V13.256H116.872ZM133.424 26L130.232 19.904H130.208V26H124.88V9.008H132.8C134.176 9.008 135.352 9.256 136.328 9.752C137.304 10.232 138.032 10.896 138.512 11.744C139.008 12.576 139.256 13.52 139.256 14.576C139.256 15.712 138.936 16.72 138.296 17.6C137.672 18.48 136.768 19.112 135.584 19.496L139.28 26H133.424ZM130.208 16.352H132.32C132.832 16.352 133.216 16.24 133.472 16.016C133.728 15.776 133.856 15.408 133.856 14.912C133.856 14.464 133.72 14.112 133.448 13.856C133.192 13.6 132.816 13.472 132.32 13.472H130.208V16.352ZM146.286 9.008V26H140.958V9.008H146.286ZM164.988 26H159.66L154.02 17.456V26H148.692V9.008H154.02L159.66 17.696V9.008H164.988V26ZM170.035 26.192C169.107 26.192 168.363 25.944 167.803 25.448C167.243 24.952 166.963 24.328 166.963 23.576C166.963 22.808 167.243 22.176 167.803 21.68C168.363 21.168 169.107 20.912 170.035 20.912C170.947 20.912 171.683 21.168 172.243 21.68C172.803 22.176 173.083 22.808 173.083 23.576C173.083 24.328 172.803 24.952 172.243 25.448C171.683 25.944 170.947 26.192 170.035 26.192ZM180.387 9.008V26H175.059V9.008H180.387ZM189.874 9.008C191.65 9.008 193.202 9.368 194.53 10.088C195.874 10.808 196.906 11.808 197.626 13.088C198.346 14.368 198.706 15.824 198.706 17.456C198.706 19.072 198.346 20.528 197.626 21.824C196.906 23.12 195.874 24.144 194.53 24.896C193.202 25.632 191.65 26 189.874 26H182.794V9.008H189.874ZM189.394 21.248C190.594 21.248 191.546 20.92 192.25 20.264C192.954 19.608 193.306 18.672 193.306 17.456C193.306 16.24 192.954 15.304 192.25 14.648C191.546 13.992 190.594 13.664 189.394 13.664H188.122V21.248H189.394Z" fill="#00809D"/>
<circle cx="18" cy="18" r="18" fill="#00809D"/>
<path fill-rule="evenodd" clip-rule="evenodd" d="M14 13V12C14 11.2044 14.3161 10.4413 14.8787 9.87868C15.4413 9.31607 16.2044 9 17 9H19C19.7956 9 20.5587 9.31607 21.1213 9.87868C21.6839 10.4413 22 11.2044 22 12V13H24C24.5304 13 25.0391 13.2107 25.4142 13.5858C25.7893 13.9609 26 14.4696 26 15V18.57C23.4396 19.5187 20.7305 20.003 18 20C15.2695 20.003 12.5604 19.5188 10 18.57V15C10 14.4696 10.2107 13.9609 10.5858 13.5858C10.9609 13.2107 11.4696 13 12 13H14ZM16 12C16 11.7348 16.1054 11.4804 16.2929 11.2929C16.4804 11.1054 16.7348 11 17 11H19C19.2652 11 19.5196 11.1054 19.7071 11.2929C19.8946 11.4804 20 11.7348 20 12V13H16V12ZM17 17C17 16.7348 17.1054 16.4804 17.2929 16.2929C17.4804 16.1054 17.7348 16 18 16H18.01C18.2752 16 18.5296 16.1054 18.7171 16.2929C18.9046 16.4804 19.01 16.7348 19.01 17C19.01 17.2652 18.9046 17.5196 18.7171 17.7071C18.5296 17.8946 18.2752 18 18.01 18H18C17.7348 18 17.4804 17.8946 17.2929 17.7071C17.1054 17.5196 17 17.2652 17 17Z" fill="#ECF2F5"/>
<path d="M10 20.692V23C10 23.5304 10.2107 24.0391 10.5858 24.4142C10.9609 24.7893 11.4696 25 12 25H24C24.5304 25 25.0391 24.7893 25.4142 24.4142C25.7893 24.0391 26 23.5304 26 23V20.692C23.4224 21.5608 20.7201 22.0026 18 22C15.204 22 12.513 21.54 10 20.692Z" fill="#ECF2F5"/>
</svg>
